<svg width="103" height="103" viewBox="0 0 103 103" fill="none" xmlns="http://www.w3.org/2000/svg">
<g clip-path="url(#clip0_174_3440)">
<path d="M44.3563 72.9512C44.3563 72.9511 44.3563 72.9509 44.3564 72.9508C45.0193 70.4797 45.3609 68.1673 45.6076 66.0536C45.6941 65.3127 45.7677 64.6109 45.8381 63.9386C45.9732 62.6508 46.0968 61.4713 46.2779 60.333C46.8077 57.0035 47.7513 54.6053 50.5286 52.7754C53.4116 51.1142 55.9785 51.3477 59.191 52.3694C60.2896 52.7189 61.3993 53.1382 62.6109 53.5961C63.2428 53.8349 63.9025 54.0842 64.6027 54.3395C66.6018 55.0683 68.8211 55.8015 71.3263 56.3188C78.1657 57.7318 81.9315 60.3977 83.5236 62.9699C85.0553 65.4443 84.7079 68.011 82.8907 69.9677C81.0732 71.9247 78.4247 72.3265 74.9491 72.5894C74.6776 72.6099 74.4009 72.6295 74.1197 72.6494C71.046 72.8672 67.4414 73.1226 64.413 75.0355C64.344 75.0724 64.2828 75.1118 64.2292 75.1507C61.1333 76.9949 59.2762 80.1186 57.6938 82.7801C57.5497 83.0224 57.408 83.2608 57.2678 83.4941C55.4721 86.4819 53.9242 88.6675 51.3603 89.412C48.7964 90.1565 46.3471 89.3143 44.8237 86.8348C43.2402 84.2574 42.5488 79.6962 44.3563 72.9512Z" stroke="#24A9E1" stroke-width="3"/>
<path d="M16.0694 60.009C16.7203 58.4229 18.3868 57.2066 20.9313 56.7352C23.4576 56.2672 26.6466 56.5921 29.8587 57.9102C33.0709 59.2282 35.569 61.2369 37.0384 63.3445C38.5184 65.4673 38.8503 67.5036 38.1995 69.0897C37.5486 70.6758 35.8821 71.8921 33.3376 72.3635C30.8113 72.8315 27.6223 72.5066 24.4102 71.1885C21.198 69.8705 18.6999 67.8618 17.2305 65.7542C15.7505 63.6314 15.4186 61.5951 16.0694 60.009Z" stroke="#24A9E1" stroke-width="3"/>
<path d="M64.4023 36.6067C64.6669 33.1447 65.8084 30.1494 67.3609 28.1022C68.9247 26.0403 70.7597 25.0973 72.4692 25.228C74.1786 25.3586 75.8491 26.5694 77.0813 28.845C78.3047 31.1044 78.9779 34.2384 78.7133 37.7004C78.4488 41.1623 77.3072 44.1577 75.7547 46.2048C74.191 48.2668 72.3559 49.2097 70.6465 49.0791C68.937 48.9485 67.2666 47.7376 66.0343 45.462C64.8109 43.2027 64.1377 40.0687 64.4023 36.6067Z" stroke="#24A9E1" stroke-width="3"/>
<path d="M40.1865 44.2178C39.7622 41.5236 38.3114 38.4526 35.8643 35.7116L40.1865 44.2178ZM40.1865 44.2178C40.6138 46.9304 39.9882 49.0473 38.6117 50.2766M40.1865 44.2178L38.6117 50.2766M38.6117 50.2766C37.2354 51.5057 35.0622 51.8882 32.4155 51.1571M38.6117 50.2766L32.4155 51.1571M32.4155 51.1571C29.7867 50.431 26.8992 48.6424 24.4519 45.9013M32.4155 51.1571L24.4519 45.9013M24.4519 45.9013C22.0047 43.1603 20.5539 40.0893 20.1295 37.3951M24.4519 45.9013L20.1295 37.3951M20.1295 37.3951C19.7023 34.6825 20.3278 32.5656 21.7043 31.3363M20.1295 37.3951L21.7043 31.3363M21.7043 31.3363C23.0814 30.1065 25.2531 29.7227 27.8975 30.4524M21.7043 31.3363L27.8975 30.4524M27.8975 30.4524C30.5246 31.1773 33.412 32.9655 35.8642 35.7115L27.8975 30.4524Z" stroke="#24A9E1" stroke-width="3"/>
<path d="M41.8759 32.0296C40.5256 28.6121 40.2245 25.2292 40.7565 22.5543C41.2922 19.8612 42.6103 18.0908 44.3266 17.4126C46.043 16.7344 48.2153 17.1258 50.4471 18.7253C52.6638 20.3141 54.7563 22.9893 56.1066 26.4067C57.4569 29.8242 57.7581 33.2071 57.226 35.882C56.6903 38.5751 55.3723 40.3456 53.6559 41.0237C51.9395 41.7019 49.7673 41.3106 47.5355 39.711C45.3188 38.1222 43.2262 35.447 41.8759 32.0296Z" stroke="#24A9E1" stroke-width="3"/>
</g>
<defs>
<clipPath id="clip0_174_3440">
<rect width="73.5912" height="72" fill="white" transform="translate(52.0369 102.949) rotate(-135)"/>
</clipPath>
</defs>
</svg>
