<svg width="103" height="103" viewBox="0 0 103 103" fill="none" xmlns="http://www.w3.org/2000/svg">
<g clip-path="url(#clip0_174_3447)">
<path d="M29.9975 44.356C29.9977 44.3561 29.9978 44.3561 29.9979 44.3561C32.469 45.019 34.7815 45.3607 36.8951 45.6074C37.636 45.6938 38.3379 45.7674 39.0102 45.8379C40.298 45.9729 41.4774 46.0966 42.6157 46.2777C45.9452 46.8075 48.3434 47.7511 50.1733 50.5283C51.8345 53.4113 51.601 55.9782 50.5793 59.1907C50.2299 60.2894 49.8105 61.399 49.3526 62.6107C49.1138 63.2426 48.8646 63.9022 48.6093 64.6025C47.8804 66.6016 47.1472 68.821 46.6299 71.3262C45.2169 78.1655 42.5511 81.9313 39.9789 83.5234C37.5045 85.055 34.9377 84.7077 32.981 82.8905C31.0241 81.073 30.6223 78.4245 30.3594 74.9488C30.3388 74.6774 30.3192 74.4006 30.2993 74.1194C30.0815 71.0457 29.8261 67.4411 27.9133 64.4127C27.8763 64.3438 27.8369 64.2826 27.798 64.229C25.9538 61.133 22.8302 59.2759 20.1686 57.6935C19.9264 57.5495 19.6879 57.4077 19.4546 57.2675C16.4669 55.4719 14.2812 53.9239 13.5367 51.36C12.7922 48.7962 13.6344 46.3468 16.1139 44.8235C18.6914 43.24 23.2526 42.5486 29.9975 44.356Z" stroke="#24A9E1" stroke-opacity="0.45" stroke-width="3"/>
<path d="M42.9395 16.0692C44.5256 16.72 45.7419 18.3865 46.2133 20.931C46.6813 23.4573 46.3564 26.6463 45.0383 29.8585C43.7203 33.0707 41.7116 35.5687 39.604 37.0382C37.4812 38.5182 35.4449 38.85 33.8588 38.1992C32.2727 37.5484 31.0564 35.8819 30.585 33.3374C30.117 30.8111 30.4419 27.6221 31.7599 24.4099C33.078 21.1978 35.0867 18.6997 37.1943 17.2303C39.3171 15.7502 41.3534 15.4184 42.9395 16.0692Z" stroke="#24A9E1" stroke-opacity="0.45" stroke-width="3"/>
<path d="M66.3418 64.4023C69.8038 64.6669 72.7991 65.8084 74.8463 67.3609C76.9082 68.9247 77.8511 70.7597 77.7205 72.4692C77.5899 74.1786 76.3791 75.8491 74.1034 77.0813C71.8441 78.3047 68.7101 78.9779 65.2481 78.7133C61.7862 78.4488 58.7908 77.3072 56.7436 75.7547C54.6817 74.191 53.7388 72.3559 53.8694 70.6465C54 68.937 55.2108 67.2666 57.4865 66.0343C59.7458 64.8109 62.8798 64.1377 66.3418 64.4023Z" stroke="#24A9E1" stroke-opacity="0.45" stroke-width="3"/>
<path d="M58.7307 40.1865C61.4249 39.7622 64.4959 38.3114 67.2369 35.8643L58.7307 40.1865ZM58.7307 40.1865C56.0181 40.6138 53.9012 39.9882 52.6719 38.6117M58.7307 40.1865L52.6719 38.6117M52.6719 38.6117C51.4428 37.2354 51.0603 35.0622 51.7914 32.4155M52.6719 38.6117L51.7914 32.4155M51.7914 32.4155C52.5174 29.7867 54.306 26.8992 57.0472 24.4519M51.7914 32.4155L57.0472 24.4519M57.0472 24.4519C59.7882 22.0047 62.8591 20.5539 65.5534 20.1295M57.0472 24.4519L65.5534 20.1295M65.5534 20.1295C68.266 19.7023 70.3829 20.3278 71.6122 21.7043M65.5534 20.1295L71.6122 21.7043M71.6122 21.7043C72.842 23.0814 73.2257 25.2531 72.4961 27.8975M71.6122 21.7043L72.4961 27.8975M72.4961 27.8975C71.7712 30.5246 69.983 33.412 67.237 35.8642L72.4961 27.8975Z" stroke="#24A9E1" stroke-opacity="0.45" stroke-width="3"/>
<path d="M70.9194 41.8759C74.3368 40.5256 77.7198 40.2245 80.3947 40.7565C83.0878 41.2922 84.8582 42.6103 85.5364 44.3266C86.2146 46.043 85.8232 48.2153 84.2236 50.4471C82.6348 52.6638 79.9597 54.7563 76.5422 56.1066C73.1248 57.4569 69.7418 57.7581 67.0669 57.226C64.3739 56.6903 62.6034 55.3723 61.9252 53.6559C61.2471 51.9395 61.6384 49.7673 63.238 47.5355C64.8268 45.3188 67.5019 43.2262 70.9194 41.8759Z" stroke="#24A9E1" stroke-opacity="0.45" stroke-width="3"/>
</g>
<defs>
<clipPath id="clip0_174_3447">
<rect width="73.5912" height="72" fill="white" transform="translate(0 52.0369) rotate(-45)"/>
</clipPath>
</defs>
</svg>
