<svg width="118" height="19" viewBox="0 0 118 19" fill="none" xmlns="http://www.w3.org/2000/svg">
<path d="M9.4 0L11.5104 6.49524H18.3399L12.8147 10.5095L14.9252 17.0048L9.4 12.9905L3.87482 17.0048L5.98525 10.5095L0.460069 6.49524H7.28957L9.4 0Z" fill="#F9C408"/>
<path d="M34.075 0L36.1855 6.49524H43.015L37.4898 10.5095L39.6002 17.0048L34.075 12.9905L28.5499 17.0048L30.6603 10.5095L25.1351 6.49524H31.9646L34.075 0Z" fill="#F9C408"/>
<path d="M58.7499 0L60.8603 6.49524H67.6898L62.1646 10.5095L64.275 17.0048L58.7499 12.9905L53.2247 17.0048L55.3351 10.5095L49.8099 6.49524H56.6394L58.7499 0Z" fill="#F9C408"/>
<path d="M83.4249 0L85.5353 6.49524H92.3648L86.8397 10.5095L88.9501 17.0048L83.4249 12.9905L77.8997 17.0048L80.0102 10.5095L74.485 6.49524H81.3145L83.4249 0Z" fill="#F9C408"/>
<path d="M108.1 0L110.211 6.49524H117.04L111.515 10.5095L113.625 17.0048L108.1 12.9905L102.575 17.0048L104.685 10.5095L99.1603 6.49524H105.99L108.1 0Z" fill="#F9C408"/>
</svg>
