<svg width="91" height="90" viewBox="0 0 91 90" fill="none" xmlns="http://www.w3.org/2000/svg">
<g clip-path="url(#clip0_174_3433)">
<path d="M46.6126 44.4138C51.381 39.0847 47.649 33.2896 47.6516 24.4106C47.652 11.3864 40.7751 7.38625 35.6194 10.5077C30.4637 13.6291 31.8357 21.7211 27.4184 26.2216L27.3782 26.2634C27.3688 26.2796 27.3594 26.2958 27.3399 26.3062C23.1036 30.9762 14.9464 30.0749 12.1272 35.4033C9.30796 40.7317 13.7006 47.3657 26.704 46.6098C35.5659 46.0937 41.5677 49.4857 46.6126 44.4138Z" fill="#24A9E1" fill-opacity="0.45"/>
<path d="M62.3096 35.5029C68.9789 36.3584 74.8325 33.567 75.384 29.268C75.9355 24.969 70.976 20.7904 64.3066 19.9348C57.6373 19.0793 51.7837 21.8708 51.2322 26.1698C50.6807 30.4688 55.6402 34.6474 62.3096 35.5029Z" fill="#24A9E1" fill-opacity="0.45"/>
<path d="M33.1555 74.0199C37.4154 73.2204 39.8632 67.2149 38.6228 60.6063C37.3825 53.9977 32.9237 49.2885 28.6638 50.088C24.404 50.8875 21.9562 56.893 23.1965 63.5016C24.4369 70.1102 28.8957 74.8194 33.1555 74.0199Z" fill="#24A9E1" fill-opacity="0.45"/>
<path d="M61.6885 56.0923C55.7584 52.2057 52.982 45.9555 55.4872 42.132C57.9924 38.3085 64.8311 38.3619 70.7612 42.2485C76.6914 46.1352 79.4677 52.3854 76.9625 56.2089C74.4573 60.0324 67.6288 59.9848 61.6885 56.0923Z" fill="#24A9E1" fill-opacity="0.45"/>
<path d="M60.1308 74.0163C63.8024 71.2934 63.3551 64.4692 59.1317 58.774C54.9082 53.0788 48.5079 50.6692 44.8362 53.3921C41.1645 56.1149 41.6118 62.9392 45.8353 68.6344C50.0588 74.3296 56.4591 76.7392 60.1308 74.0163Z" fill="#24A9E1" fill-opacity="0.45"/>
</g>
<defs>
<clipPath id="clip0_174_3433">
<rect width="66.5634" height="65.1242" fill="white" transform="translate(32.562) rotate(30)"/>
</clipPath>
</defs>
</svg>
