<svg width="91" height="90" viewBox="0 0 91 90" fill="none" xmlns="http://www.w3.org/2000/svg">
<g clip-path="url(#clip0_174_3290)">
<path d="M43.5949 45.2669C38.8265 50.5959 42.5586 56.3911 42.556 65.2701C42.5555 78.2943 49.4324 82.2944 54.5882 79.173C59.7439 76.0515 58.3718 67.9595 62.7891 63.459L62.8293 63.4173C62.8387 63.4011 62.8481 63.3848 62.8676 63.3745C67.1039 58.7045 75.2611 59.6058 78.0803 54.2774C80.8996 48.949 76.5069 42.315 63.5035 43.0709C54.6416 43.587 48.6398 40.1949 43.5949 45.2669Z" fill="#24A9E1" fill-opacity="0.45"/>
<path d="M27.898 54.1778C21.2286 53.3222 15.375 56.1137 14.8235 60.4127C14.272 64.7117 19.2315 68.8903 25.9009 69.7458C32.5702 70.6014 38.4239 67.8099 38.9753 63.5109C39.5268 59.2119 34.5673 55.0333 27.898 54.1778Z" fill="#24A9E1" fill-opacity="0.45"/>
<path d="M57.052 15.6608C52.7921 16.4603 50.3444 22.4658 51.5847 29.0744C52.8251 35.683 57.2839 40.3922 61.5437 39.5927C65.8036 38.7932 68.2513 32.7877 67.011 26.1791C65.7706 19.5704 61.3118 14.8612 57.052 15.6608Z" fill="#24A9E1" fill-opacity="0.45"/>
<path d="M28.519 33.5883C34.4491 37.4749 37.2255 43.7252 34.7203 47.5487C32.2151 51.3721 25.3765 51.3187 19.4463 47.4321C13.5162 43.5455 10.7398 37.2952 13.245 33.4718C15.7502 29.6483 22.5787 29.6959 28.519 33.5883Z" fill="#24A9E1" fill-opacity="0.45"/>
<path d="M30.0768 15.6644C26.4051 18.3872 26.8524 25.2114 31.0759 30.9067C35.2993 36.6019 41.6997 39.0114 45.3713 36.2886C49.043 33.5657 48.5957 26.7415 44.3722 21.0463C40.1488 15.3511 33.7485 12.9415 30.0768 15.6644Z" fill="#24A9E1" fill-opacity="0.45"/>
</g>
<defs>
<clipPath id="clip0_174_3290">
<rect width="66.5634" height="65.1242" fill="white" transform="translate(57.6455 89.6807) rotate(-150)"/>
</clipPath>
</defs>
</svg>
