<svg width="97" height="95" viewBox="0 0 97 95" fill="none" xmlns="http://www.w3.org/2000/svg">
<g clip-path="url(#clip0_174_3419)">
<path d="M50.1365 46.1394C53.9282 38.6402 47.9295 33.1974 45.232 23.1181C41.2712 8.33449 32.2487 5.88555 27.3459 10.9967C22.4431 16.1079 26.4617 24.8757 22.8165 31.3276L22.7835 31.3872C22.7778 31.4085 22.7721 31.4298 22.7531 31.4475C19.3649 38.0368 9.83167 39.4947 8.25222 46.4003C6.67277 53.306 13.6765 59.5001 28.2066 54.6872C38.1085 51.406 45.9528 53.4309 50.1365 46.1394Z" fill="#24A9E1" fill-opacity="0.85"/>
<path d="M65.2438 31.2507C73.0743 30.1934 78.8697 25.2445 78.1881 20.197C77.5066 15.1496 70.6062 11.9149 62.7757 12.9723C54.9453 14.0296 49.1499 18.9785 49.8315 24.0259C50.513 29.0734 57.4133 32.308 65.2438 31.2507Z" fill="#24A9E1" fill-opacity="0.85"/>
<path d="M43.866 83.8378C48.4582 81.6347 49.4101 74.0735 45.9922 66.9494C42.5743 59.8253 36.0809 55.8361 31.4888 58.0392C26.8967 60.2423 25.9448 67.8035 29.3627 74.9276C32.7806 82.0517 39.2739 86.0409 43.866 83.8378Z" fill="#24A9E1" fill-opacity="0.85"/>
<path d="M70.8008 54.8103C62.8875 52.2023 57.8351 45.9521 59.5158 40.8502C61.1965 35.7483 68.9752 33.729 76.8885 36.337C84.8018 38.945 89.8542 45.1952 88.1735 50.2971C86.4928 55.399 78.7274 57.4218 70.8008 54.8103Z" fill="#24A9E1" fill-opacity="0.85"/>
<path d="M74.4841 75.6295C77.8236 71.4221 75.2403 63.8121 68.7142 58.6321C62.188 53.4521 54.1902 52.6637 50.8507 56.8711C47.5112 61.0785 50.0945 68.6885 56.6206 73.8685C63.1468 79.0485 71.1445 79.8369 74.4841 75.6295Z" fill="#24A9E1" fill-opacity="0.85"/>
</g>
<defs>
<clipPath id="clip0_174_3419">
<rect width="78.2203" height="76.529" fill="white" transform="translate(20.6797 -0.000488281) rotate(15)"/>
</clipPath>
</defs>
</svg>
