<svg width="94" height="94" viewBox="0 0 94 94" fill="none" xmlns="http://www.w3.org/2000/svg">
<g clip-path="url(#clip0_174_3426)">
<path d="M44.9905 46.58C39.0053 50.4933 41.1103 57.0569 38.8097 65.6327C35.4384 78.213 41.0457 83.8567 46.8336 82.176C52.6215 80.4953 53.3906 72.324 58.8222 69.1201L58.8719 69.0902C58.8851 69.0769 58.8984 69.0637 58.9199 69.0587C64.2205 65.6443 71.8665 68.6261 75.9688 64.2089C80.071 59.7918 77.545 52.2469 64.7891 49.6115C56.0956 47.8165 51.1762 42.9866 44.9905 46.58Z" fill="#24A9E1" fill-opacity="0.45"/>
<path d="M27.5222 51.1246C21.3015 48.572 14.9249 49.7534 13.2795 53.7631C11.6342 57.7729 15.3432 63.0927 21.5639 65.6453C27.7846 68.1978 34.1612 67.0165 35.8066 63.0067C37.4519 58.997 33.7429 53.6771 27.5222 51.1246Z" fill="#24A9E1" fill-opacity="0.45"/>
<path d="M65.6517 21.4658C61.3301 21.1355 57.4114 26.3029 56.899 33.0073C56.3867 39.7118 59.4747 45.4145 63.7963 45.7448C68.118 46.075 72.0367 40.9077 72.549 34.2033C73.0614 27.4988 69.9733 21.7961 65.6517 21.4658Z" fill="#24A9E1" fill-opacity="0.45"/>
<path d="M33.4511 31.3978C38.1733 36.6868 39.2374 43.4426 35.828 46.4874C32.4185 49.5322 25.8267 47.7107 21.1046 42.4217C16.3824 37.1326 15.3183 30.3768 18.7278 27.332C22.1372 24.2872 28.7207 26.1005 33.4511 31.3978Z" fill="#24A9E1" fill-opacity="0.45"/>
<path d="M39.5949 14.4877C35.3436 16.1675 34.0094 22.8749 36.6149 29.4692C39.2205 36.0635 44.779 40.0475 49.0303 38.3677C53.2816 36.6879 54.6158 29.9804 52.0103 23.3862C49.4047 16.7919 43.8462 12.8079 39.5949 14.4877Z" fill="#24A9E1" fill-opacity="0.45"/>
</g>
<defs>
<clipPath id="clip0_174_3426">
<rect width="66.5634" height="65.1242" fill="white" transform="translate(47.0674 93.1172) rotate(-135)"/>
</clipPath>
</defs>
</svg>
